<svg xmlns="http://www.w3.org/2000/svg" viewBox="0 0 2400 2400" width="180" height="180">
  <rect width="2400" height="2400" fill="#000000"/>
  <g fill="#ffffff">
    <path d="M1948.13 1451.95 c-16.41 -4.69 -20.39 -6.80 -33.98 -19.69 -14.53 -13.59 -22.73 -29.53 -26.02 -51.33 l-2.58 -17.11 -17.81 -7.50 c-34.92 -15.47 -64.45 -36.80 -85.31 -61.88 -14.53 -17.81 -25.31 -35.39 -23.20 -38.44 0.70 -1.17 7.73 -2.11 15.94 -2.11 l14.77 0 9.14 13.36 c12.89 18.52 41.95 42.66 68.91 56.72 12.66 6.56 24.14 11.95 25.55 11.95 1.41 0 3.75 -2.58 5.39 -5.86 1.88 -4.45 1.88 -6.56 -0.47 -9.38 -2.81 -3.28 -1.88 -5.16 6.56 -13.59 9.14 -8.91 10.08 -9.38 13.59 -5.86 3.52 3.52 4.92 3.28 17.11 -2.58 11.25 -5.16 16.17 -6.09 34.22 -6.09 17.58 0 22.97 0.94 32.81 5.86 15.70 7.73 32.81 25.31 40.55 41.72 5.39 11.25 6.33 16.41 6.33 33.28 -0.23 16.88 -1.17 22.03 -6.56 33.28 -17.11 35.39 -59.06 55.31 -94.92 45.23z"/>
    <path d="M477.66 1345.31 c-50.63 -9.14 -89.53 -39.14 -110.86 -85.55 -11.02 -23.44 -13.83 -38.67 -12.19 -67.03 1.41 -29.53 7.03 -46.88 22.50 -70.78 18.75 -28.36 43.59 -48.28 74.53 -59.53 19.45 -7.03 63.75 -9.84 82.97 -5.39 15.47 3.75 37.27 13.36 51.33 22.97 l10.55 7.27 1.17 -14.53 1.17 -14.53 24.14 -0.70 23.91 -0.70 0 142.97 c0 127.97 -0.47 142.73 -3.75 144.14 -5.86 2.34 -32.81 1.64 -39.38 -0.94 -5.63 -2.11 -6.09 -3.52 -6.09 -15.23 0 -7.03 -0.94 -12.89 -2.11 -12.89 -1.41 0 -9.14 4.22 -17.34 9.38 -29.53 18.75 -69.14 26.95 -100.55 21.09z m64.45 -55.55 c20.63 -9.84 39.38 -28.36 48.75 -48.75 28.59 -60.94 -14.06 -133.13 -82.50 -138.75 -29.30 -2.58 -58.59 8.91 -79.45 31.17 -50.63 53.67 -27.89 138.52 43.36 161.72 5.63 1.88 18.05 3.05 31.64 2.58 19.69 -0.47 24.14 -1.41 38.20 -7.97z"/>
    <path d="M967.97 1343.91 c-53.20 -11.25 -100.08 -56.72 -113.67 -109.92 -4.69 -18.05 -4.45 -51.80 0.23 -70.08 6.33 -24.38 18.75 -45.23 39.61 -66.09 30 -30.23 61.41 -43.13 105.47 -43.13 42.66 0 72.89 12.89 103.13 43.13 18.52 18.75 33.75 42.89 30.47 48.05 -0.94 1.64 -10.78 2.58 -24.61 2.58 l-22.97 0 -13.59 -14.06 c-24.14 -25.31 -56.02 -36.33 -88.36 -30.94 -82.50 14.30 -113.67 110.39 -54.14 166.88 18.52 17.58 38.44 26.02 63.98 27.66 22.50 1.17 37.27 -2.11 55.78 -12.89 10.08 -5.86 31.17 -25.55 31.17 -29.30 0 -0.94 12.19 -1.88 27.19 -1.88 30.70 0 30.23 -0.70 18.05 20.63 -31.17 53.44 -97.03 82.50 -157.73 69.38z"/>
    <path d="M1281.33 1343.91 c-75 -16.17 -126.56 -87.19 -116.48 -160.31 4.69 -34.69 18.52 -62.11 44.53 -88.13 18.05 -18.28 49.22 -34.92 71.48 -38.44 21.80 -3.52 54.84 -2.81 69.38 1.41 50.39 15 90.94 56.02 104.30 105.94 4.69 17.58 4.69 53.91 -0.23 71.95 -20.63 76.41 -96.80 123.98 -172.97 107.58z m71.48 -54.38 c29.30 -14.30 50.39 -42.66 56.02 -75.23 11.02 -62.34 -48.98 -121.88 -112.03 -111.09 -34.22 5.86 -60.70 25.78 -75.23 56.48 -8.20 17.11 -8.67 19.22 -8.67 41.48 0 21.56 0.70 24.84 7.50 39.14 12.42 26.48 32.11 43.83 60.47 54.14 8.91 3.05 17.11 3.98 34.22 3.28 19.69 -0.47 24.14 -1.41 37.73 -8.20z"/>
    <path d="M691.64 1342.03 c-1.88 -2.11 -2.34 -41.72 -2.11 -143.44 l0.70 -140.39 22.50 -0.70 22.50 -0.70 1.64 7.50 c0.70 3.98 1.41 12.66 1.41 18.98 l0 11.48 13.59 -10.31 c23.91 -18.75 43.59 -26.02 77.58 -28.59 15.23 -1.41 19.92 -0.94 21.56 1.41 3.28 5.16 2.58 41.02 -0.70 43.83 -1.64 1.17 -11.25 2.81 -21.09 3.28 -38.91 2.34 -72.89 29.77 -86.48 69.38 -3.98 11.72 -4.45 20.39 -4.45 88.59 0 41.48 -0.70 77.11 -1.41 79.22 -1.88 5.16 -41.02 5.39 -45.23 0.47z"/>
    <path d="M1502.81 1342.97 c-5.16 -2.11 -5.39 -3.28 -4.69 -23.91 l0.70 -21.80 71.48 -1.17 c76.64 -1.17 76.88 -1.17 87.66 -14.06 13.13 -15.70 9.14 -39.38 -8.67 -51.09 -9.14 -6.09 -10.55 -6.33 -52.97 -7.50 -41.02 -1.17 -44.30 -1.64 -56.95 -7.50 -16.17 -7.50 -32.11 -22.97 -41.02 -39.84 -6.09 -11.25 -6.56 -14.53 -6.56 -37.03 0 -22.27 0.70 -26.02 6.56 -37.97 7.97 -16.41 26.02 -33.05 41.02 -37.97 8.91 -3.05 25.78 -3.75 88.36 -4.22 l77.34 -0.70 0 22.27 0 22.27 -71.48 1.17 c-79.22 1.41 -81.09 1.64 -90.47 17.34 -5.16 8.91 -5.16 26.02 0 35.86 7.50 14.53 14.06 16.41 62.34 17.58 41.02 0.94 44.06 1.41 57.66 7.50 17.81 7.97 33.75 23.91 42.42 42.42 5.63 12.19 6.56 16.88 6.56 36.33 0 19.22 -0.94 24.14 -6.33 35.63 -7.97 17.11 -22.50 31.17 -41.72 40.31 l-15.23 7.27 -70.31 0.47 c-40.78 0.47 -72.66 -0.23 -75.70 -1.64z"/>
    <path d="M1755.47 1145.16 c0 -1.88 5.39 -11.25 11.95 -21.09 22.03 -33.05 63.52 -64.92 104.30 -80.63 l16.88 -6.33 1.17 -15.94 c2.11 -29.53 19.22 -54.84 45.94 -67.50 8.44 -3.98 15.47 -5.16 33.05 -5.39 21.09 -0.23 22.97 0.23 37.03 7.73 48.98 26.48 58.83 86.72 20.86 126.33 -15.47 15.94 -29.53 22.27 -53.44 23.44 -17.34 0.94 -21.80 0.23 -34.69 -4.92 -11.72 -4.69 -15.70 -5.39 -18.98 -3.28 -3.52 2.11 -5.86 1.17 -13.59 -5.86 -8.20 -7.27 -8.91 -8.91 -5.86 -11.72 2.58 -2.81 2.81 -4.69 0.47 -9.61 -1.64 -3.52 -4.69 -6.33 -7.03 -6.33 -2.11 0 -14.53 5.39 -27.42 11.72 -26.48 13.13 -53.91 36.80 -69.61 59.77 l-8.91 12.89 -16.17 0 c-12.19 0 -15.94 -0.70 -15.94 -3.28z"/>
    <path d="M1889.53 1307.11 c-12.42 -19.22 -24.38 -48.52 -28.36 -70.78 -3.52 -18.98 -3.05 -57.89 0.70 -76.41 4.45 -21.09 16.41 -49.92 26.72 -65.16 12.66 -18.52 14.53 -19.22 26.02 -8.91 5.63 4.92 8.44 9.14 7.03 10.08 -1.41 0.70 -6.56 7.73 -11.48 15.47 -14.30 22.03 -25.78 61.88 -25.78 90 0 27.19 11.72 63.75 28.59 90.23 l8.44 13.36 -10.08 9.84 -10.31 10.08 -11.48 -17.81z"/>
  </g>
</svg>
